<svg width="72" height="69" viewBox="0 0 72 69" fill="none" xmlns="http://www.w3.org/2000/svg">
<path d="M72.3335 57.9977C72.214 58.5163 72.1035 59.0361 71.9727 59.5525C70.5712 65.0829 65.8764 68.7404 59.9322 68.754C44.2037 68.7912 28.4752 68.7889 12.7467 68.7551C6.52859 68.7416 1.70405 64.8224 0.557396 58.8918C0.302583 57.5738 0.324005 56.187 0.345427 54.834C0.364595 53.6219 1.41767 52.7323 2.70188 52.6827C3.25548 52.6613 3.80908 52.6793 4.3514 52.6793C4.04698 51.4988 3.74256 50.4007 3.48549 49.2901C3.31186 48.5392 3.63319 47.9901 4.24429 47.8638C4.91064 47.7263 5.33683 48.1175 5.54993 48.8977C5.85097 49.9993 6.2253 51.0805 6.57369 52.1697C6.69433 52.5474 6.93336 52.7064 7.35842 52.6883C8.22208 52.6523 9.08912 52.6782 10.0419 52.6782C10.2764 50.7479 10.7454 48.9045 11.6327 47.1873C12.5133 45.4848 13.6927 44.0157 15.1742 42.7055C13.6758 41.5465 12.0285 40.8553 10.2628 40.446C9.44428 40.2566 8.59866 40.1845 7.76996 40.0379C7.33475 39.9612 7.05851 40.0785 6.91419 40.5193C6.54325 41.6513 6.17794 42.7856 5.76077 43.8996C5.62209 44.2694 5.39884 44.6798 5.09104 44.8895C4.87118 45.0394 4.34464 45.0056 4.1338 44.8342C3.87222 44.62 3.61628 44.151 3.66702 43.8421C3.98384 41.9095 4.63102 40.0728 5.68297 38.4188C5.87803 38.1121 6.48011 37.9126 6.89051 37.9182C10.4523 37.9588 13.7209 38.9454 16.5937 41.1079C16.7053 41.1924 16.8215 41.2714 16.8124 41.2657C18.3605 40.6896 19.7901 40.0368 21.2875 39.6376C22.4488 39.3276 23.6924 39.2994 24.9044 39.2171C25.3205 39.1889 25.555 39.0322 25.5685 38.6827C25.5764 38.4752 25.4062 38.1809 25.2258 38.0591C20.081 34.5921 17.0346 29.7867 16.1111 23.6667C14.8055 15.0042 19.7383 5.973 27.7649 2.44846C34.9436 -0.704005 41.8123 -0.0207456 48.2897 4.4227C48.4825 4.55461 48.6765 4.69442 48.8343 4.86355C49.2211 5.28072 49.2571 5.76103 48.9189 6.20639C48.5851 6.64724 48.1206 6.77013 47.6076 6.50517C47.4216 6.40934 47.2558 6.27517 47.0845 6.15114C36.0486 -1.82586 20.4711 4.50839 18.3278 17.9627C17.127 25.5 19.9085 31.5456 26.0522 36.0511C26.236 36.1864 26.4446 36.2879 26.6442 36.4074C27.1369 35.6971 27.6217 35.0386 28.0637 34.3508C28.4944 33.6811 29.075 33.5233 29.8203 33.6766C32.966 34.326 35.7599 35.6553 38.0859 37.9024C38.2043 38.0163 38.3182 38.1336 38.44 38.2441C38.4715 38.2722 38.5234 38.279 38.6114 38.314C40.5608 37.1087 42.7087 36.3487 44.9986 35.9857C45.1147 35.9677 45.232 35.9214 45.3447 35.9327C46.8635 36.0793 47.8737 35.1931 48.8681 34.237C55.641 27.7336 56.5283 17.5625 50.9732 9.99363C50.9179 9.91809 50.8582 9.8448 50.8063 9.76701C50.4027 9.16042 50.4635 8.5854 50.9675 8.21445C51.4524 7.85816 52.0691 7.96753 52.502 8.52677C54.0512 10.5303 55.252 12.7301 55.8834 15.1846C58.0595 23.6521 55.853 30.806 49.3338 36.6295C49.1602 36.7851 48.9798 36.9317 48.8242 37.0647C49.2842 38.3151 49.7295 39.5395 50.1929 40.7572C50.2313 40.8576 50.3959 40.9805 50.4951 40.976C52.0635 40.8914 52.8155 41.7224 52.9666 43.4159C53.6217 42.7619 54.1403 42.2444 54.6589 41.728C54.8912 41.4957 55.1144 41.2545 55.3557 41.0335C55.9184 40.5171 56.4911 40.5081 57.0199 41.0639C57.4709 41.5375 57.8926 42.046 58.2748 42.5759C58.657 43.1047 58.975 43.6797 59.3504 44.2806C59.6255 44.1228 59.9029 43.9627 60.1814 43.8048C62.0327 42.7608 64.0419 42.2805 66.1458 42.117C66.9306 42.0561 67.4176 42.3662 67.7739 43.0551C69.3073 46.0249 69.853 49.0984 68.8484 52.358C68.8281 52.4223 68.8338 52.4955 68.8146 52.712C70.3931 52.4933 71.7044 52.8699 72.3335 54.4844V58.0011V57.9977ZM3.0717 60.1027H3.96355C18.2162 60.1027 32.4699 60.1027 46.7225 60.1027C46.957 60.1027 47.1927 60.0892 47.4261 60.1084C48.0191 60.1568 48.3811 60.4714 48.4352 61.0758C48.4871 61.6508 48.1026 62.1119 47.505 62.1942C47.2513 62.2292 46.9897 62.2123 46.7327 62.2123C32.8318 62.2123 18.9299 62.2123 5.02903 62.2123C4.76745 62.2123 4.50587 62.2123 4.1214 62.2123C5.76753 64.5045 7.8128 65.8969 10.4038 66.4212C11.2686 66.5959 12.1717 66.6478 13.0579 66.6489C28.5767 66.6625 44.0955 66.6467 59.6143 66.667C63.0633 66.6715 65.926 65.4967 68.1043 62.7817C68.226 62.6294 68.3196 62.4535 68.4741 62.2134C68.1054 62.2134 67.8495 62.2134 67.5935 62.2134C62.6946 62.2134 57.7945 62.2134 52.8955 62.2134C52.661 62.2134 52.4209 62.2337 52.1942 62.1897C51.6125 62.077 51.2652 61.7015 51.2911 61.1118C51.3171 60.5289 51.67 60.1681 52.2732 60.1117C52.4829 60.0926 52.6949 60.105 52.9057 60.105C58.2275 60.105 63.5481 60.0926 68.8698 60.1219C69.4911 60.1253 69.7718 59.9336 69.8429 59.3484C69.9658 58.3292 70.1642 57.3144 70.2082 56.2918C70.2724 54.7911 70.2262 54.7889 68.7571 54.7889C47.0258 54.7889 25.2946 54.7889 3.56442 54.7889C3.3299 54.7889 3.07734 54.737 2.8665 54.808C2.69399 54.8667 2.45045 55.0674 2.44482 55.2128C2.38506 56.8544 2.40648 58.4915 3.07283 60.1039L3.0717 60.1027ZM37.1174 52.6421C36.9765 47.9292 32.7089 41.3819 24.7917 41.3244C16.835 41.2669 12.3938 47.9957 12.2811 52.6297H14.6217C15.4076 47.4286 19.4384 44.1904 23.7093 43.8003C26.0466 43.5872 28.2351 44.0811 30.2037 45.3822C32.8115 47.105 34.2919 49.5641 34.7734 52.6421H37.1174ZM39.316 52.6703C40.7807 52.6703 42.1787 52.6793 43.578 52.6568C43.7313 52.6545 43.9027 52.491 44.0289 52.3659C46.3189 50.0816 48.61 47.7984 50.874 45.4893C51.0566 45.3022 51.1209 44.9278 51.113 44.6437C51.104 44.2773 51.0093 43.8962 50.8683 43.5545C50.7905 43.3674 50.5526 43.1306 50.3722 43.1182C48.0372 42.9558 45.7788 43.2636 43.7381 44.4904C40.6938 46.3203 39.3938 49.1142 39.316 52.6703ZM23.6529 45.9482C22.1917 46.1478 20.9898 46.6506 19.8116 47.5684C20.2107 47.9236 20.5828 48.2133 20.9064 48.5493C21.3979 49.0601 21.3991 49.6746 20.9515 50.1041C20.5219 50.5157 19.9311 50.5134 19.4463 50.0444C19.0967 49.7061 18.8013 49.3126 18.4811 48.944C18.3853 48.9552 18.2895 48.9654 18.1936 48.9766C17.6761 50.156 17.1597 51.3354 16.5903 52.6354H32.5928C32.4034 51.3027 31.896 50.1571 31.0932 49.0894C30.8914 49.2811 30.7381 49.4243 30.5881 49.5708C30.4201 49.7343 30.2645 49.9113 30.0875 50.0647C29.5779 50.5078 29.004 50.5134 28.5767 50.0895C28.1618 49.6779 28.1482 49.0544 28.6083 48.5854C28.9307 48.2562 29.3242 47.9957 29.7301 47.6688C28.4301 46.6766 27.2113 46.1388 25.7546 45.9527C25.7546 46.6292 25.7782 47.2595 25.7478 47.8864C25.7162 48.5324 25.2483 48.9789 24.6789 48.9688C24.1005 48.9586 23.6744 48.511 23.6552 47.8537C23.6371 47.2482 23.6518 46.6416 23.6518 45.9493L23.6529 45.9482ZM60.2287 52.641C60.4712 52.6545 60.6752 52.6759 60.8804 52.6759C62.5209 52.6782 64.1614 52.6523 65.8008 52.6917C66.3499 52.7053 66.572 52.5001 66.74 52.0062C67.6059 49.466 67.2891 47.0227 66.1864 44.6414C66.1109 44.4791 65.8482 44.2829 65.6903 44.2976C63.7736 44.4825 61.9775 45.0383 60.3979 46.1748C60.2682 46.2684 60.1476 46.5289 60.1825 46.6732C60.6606 48.6429 60.6538 50.6138 60.2287 52.6421V52.641ZM48.1184 40.976C47.6978 39.9984 47.3539 39.1314 46.9424 38.2959C46.8556 38.1189 46.4982 37.9374 46.3054 37.9735C45.0888 38.1956 43.8508 38.3782 42.6816 38.7604C39.9305 39.6579 37.6643 41.2545 36.1219 43.7597C35.9978 43.9616 35.8907 44.3291 35.9899 44.4858C36.6788 45.5874 37.4241 46.654 38.1525 47.7319C40.0805 43.6154 43.4539 41.4709 48.1195 40.9748L48.1184 40.976ZM27.4176 39.446C30.0796 40.0108 32.2794 41.0887 34.1781 42.6762C35.0631 41.6175 35.9076 40.6062 36.7758 39.5666C34.8658 37.6645 32.5669 36.4886 29.959 35.8865C29.8135 35.8526 29.5497 35.9023 29.4866 36.0049C28.8022 37.1053 28.1471 38.2238 27.4176 39.4471V39.446ZM56.2498 43.373C55.3602 44.2525 54.5349 45.0699 53.6972 45.8986C55.0626 47.9743 55.2385 50.2327 54.235 52.6748C55.4595 52.6748 56.5994 52.6906 57.737 52.6545C57.8768 52.65 58.1091 52.3738 58.1271 52.2058C58.2455 51.0715 58.4417 49.9249 58.3774 48.7951C58.2613 46.7431 57.4799 44.9075 56.251 43.3741L56.2498 43.373ZM46.842 52.6782C47.204 52.6782 47.478 52.6782 47.7519 52.6782C48.9944 52.6782 50.2358 52.6838 51.4783 52.6658C51.617 52.6635 51.7883 52.5632 51.8853 52.455C52.9903 51.2305 53.0714 48.7387 52.104 47.4681C50.3869 49.1683 48.6618 50.8765 46.8432 52.6782H46.842Z" fill="#D95103"/>
<path d="M48.1996 19.6504C49.468 21.2492 49.4996 22.3011 48.3778 24.007C48.2955 24.1321 48.2695 24.3543 48.3191 24.4952C48.9347 26.2439 48.7014 27.1922 47.3923 28.385C47.2491 28.5147 47.1759 28.827 47.2108 29.03C47.5152 30.8024 46.434 32.3955 44.6537 32.4226C40.5552 32.4835 36.4534 32.4463 32.355 32.3549C31.4507 32.3346 30.5544 31.922 29.534 31.6581C28.4403 32.8431 26.872 32.5252 25.3769 32.3809C24.3678 32.2839 23.5605 31.3346 23.5064 30.2961C23.4501 29.198 23.4636 28.0942 23.4895 26.9937C23.5042 26.3804 23.9619 25.9621 24.5133 25.9587C25.059 25.9564 25.5291 26.3691 25.5573 26.9836C25.6002 27.8957 25.5889 28.8112 25.5742 29.7245C25.5675 30.1608 25.7152 30.3739 26.1763 30.3706C28.4369 30.3536 27.9961 30.578 28.0085 28.6376C28.0322 25.0522 28.0006 21.4668 28.0288 17.8813C28.0344 17.2263 27.8315 17.0244 27.1843 17.0492C25.3487 17.118 25.6013 16.7662 25.5821 18.6525C25.572 19.6831 25.5867 20.7147 25.5776 21.7464C25.5709 22.6653 25.2225 23.1163 24.5358 23.1276C23.8424 23.1388 23.4782 22.689 23.4726 21.7813C23.4647 20.3753 23.4579 18.9694 23.4749 17.5634C23.494 15.9071 24.4603 14.9634 26.1154 14.9532C26.4199 14.951 26.7265 14.9724 27.0287 14.9499C28.1224 14.8687 29.0841 15.1055 29.7539 16.1055C30.8137 15.1269 31.5612 14.0152 31.984 12.696C32.6414 10.6473 33.2863 8.59306 33.9346 6.54215C34.5604 4.56228 36.1591 4.03687 37.7861 5.31544C39.2406 6.45872 39.7806 7.9876 39.4965 9.80286C39.3702 10.6113 39.1887 11.4118 39.0444 12.2179C38.7749 13.7243 39.7491 14.9228 41.287 14.9476C42.5757 14.9679 43.8734 15.0502 45.152 14.9318C47.6235 14.7041 49.5695 17.1383 48.1974 19.6526L48.1996 19.6504ZM36.0768 6.77216C35.3981 8.91891 34.7362 11.0138 34.0733 13.1087C33.4182 15.1799 32.2422 16.8801 30.516 18.2106C30.3153 18.365 30.1451 18.6965 30.1428 18.9468C30.1214 22.1331 30.1428 25.3205 30.1271 28.5068C30.1237 29.1923 30.4236 29.6636 31.0279 29.8587C31.7101 30.0785 32.4305 30.2826 33.1386 30.3007C35.7375 30.366 38.3397 30.3525 40.9397 30.366C41.9939 30.3717 43.0481 30.366 44.1034 30.366C44.6322 30.366 45.161 30.2916 45.1486 29.6253C45.1374 29.0119 44.639 28.9195 44.1316 28.9251C43.8035 28.9296 43.4754 28.9307 43.1473 28.924C42.3536 28.9071 41.8969 28.5474 41.8688 27.9239C41.8406 27.2745 42.3231 26.8381 43.1293 26.8212C43.9016 26.8043 44.6762 26.8269 45.4485 26.8122C46.1453 26.7998 46.5524 26.4525 46.5557 25.9034C46.5591 25.3622 46.1307 24.9834 45.4598 24.9699C44.6864 24.9552 43.9129 24.9733 43.1406 24.9631C42.3231 24.953 41.8451 24.5414 41.8654 23.8886C41.8845 23.2719 42.366 22.8694 43.1315 22.8603C44.0685 22.8491 45.0066 22.8648 45.9435 22.8536C46.6595 22.8457 47.0383 22.5289 47.0518 21.9606C47.0654 21.3687 46.6606 21.0169 45.9221 21.009C44.9851 20.9988 44.0471 21.0124 43.1101 21.0045C42.3434 20.9977 41.8721 20.5963 41.8654 19.9683C41.8575 19.3414 42.3344 18.9141 43.0887 18.9006C43.8385 18.8871 44.5883 18.9006 45.338 18.8961C46.1138 18.8916 46.5749 18.5319 46.558 17.9524C46.5422 17.3954 46.1025 17.0616 45.3617 17.0594C43.9794 17.0549 42.596 17.0786 41.2148 17.0515C38.4186 16.9963 36.4884 14.6263 36.9777 11.8741C37.1175 11.0905 37.2742 10.3102 37.4118 9.52662C37.626 8.30668 37.1852 7.35507 36.0757 6.77103L36.0768 6.77216Z" fill="#D95103"/>
</svg>
